<svg width="100" height="100" viewBox="0 0 100 100" fill="none" xmlns="http://www.w3.org/2000/svg">
<g clip-path="url(#clip0_15_152)">
<path d="M50 100C77.6142 100 100 77.6142 100 50C100 22.3858 77.6142 0 50 0C22.3858 0 0 22.3858 0 50C0 77.6142 22.3858 100 50 100Z" fill="white"/>
<path d="M100 50C100 77.6144 77.6144 100 50 100C36.1928 100 23.6929 94.4034 14.6447 85.3553C19.8412 90.5506 26.1571 94.5819 33.1809 97.1C43.5653 95.3469 55.6372 90.5375 67.3466 82.9344C84.3216 71.9094 96.2341 57.8031 99.8403 45.9969C99.3581 39.8566 97.7388 33.8653 95.0713 28.3266C98.23 34.8834 100 42.235 100 50Z" fill="#0CA4FB"/>
<path d="M94.1494 26.5093C82.9806 19.8157 60.0809 24.3063 38.4122 38.3781C33.9044 41.2972 29.6176 44.5447 25.5871 48.0938C24.3799 47.2003 22.8914 46.7716 21.3939 46.8856C19.8963 46.9997 18.49 47.6494 17.4322 48.7156C16.3744 49.7816 15.7359 51.1931 15.6335 52.6913C15.5311 54.1897 15.9717 55.675 16.8746 56.875C11.7996 62.7688 8.15587 68.7375 6.26525 74.25C7.67816 76.7922 9.30034 79.1906 11.1076 81.4253C4.16081 72.8384 0 61.9053 0 50C0 22.3857 22.3857 0 50 0C69.1234 0 85.7394 10.7359 94.1494 26.5093Z" fill="#0CA4FB"/>
<path d="M11.2746 80.6531C7.72459 75.1844 10.659 66.4781 17.984 58.0156C19.1605 58.9522 20.6352 59.4331 22.1376 59.37C23.64 59.3072 25.0693 58.7047 26.1635 57.6734C27.2576 56.6418 27.9432 55.2503 28.0945 53.7544C28.2458 52.2581 27.8526 50.7578 26.9871 49.5281C28.6746 48.2062 30.4683 46.925 32.3528 45.7C49.359 34.6593 67.4934 32.4 72.859 40.6593C78.2215 48.9187 68.784 64.5687 51.7778 75.6125C34.7746 86.6531 16.6371 88.9125 11.2746 80.6531Z" fill="#0CA4FB"/>
</g>
<defs>
<clipPath id="clip0_15_152">
<rect width="100" height="100" fill="white"/>
</clipPath>
</defs>
</svg>
