<svg width="66" height="66" viewBox="0 0 66 66" fill="none" xmlns="http://www.w3.org/2000/svg">
<g clip-path="url(#clip0_205_1675)">
<path d="M21.2659 3.17789C25.6141 1.99608 30.2348 0.934448 33.0001 0.934448C35.7653 0.934448 40.386 1.99608 44.7343 3.17789C49.1827 4.37974 53.6671 5.80192 56.3041 6.66324C57.4066 7.0272 58.3841 7.69468 59.1242 8.589C59.8643 9.48331 60.337 10.5682 60.488 11.719C62.8766 29.6545 57.3341 42.9469 50.6094 51.7404C47.7577 55.5021 44.3575 58.8147 40.5223 61.5675C39.1962 62.5201 37.7911 63.3577 36.3224 64.0713C35.2002 64.6001 33.994 65.0328 33.0001 65.0328C32.0062 65.0328 30.8039 64.6001 29.6778 64.0713C28.2091 63.3577 26.804 62.5201 25.4779 61.5675C21.6427 58.8146 18.2425 55.502 15.3908 51.7404C8.66607 42.9469 3.1236 29.6545 5.51211 11.719C5.66315 10.5682 6.13586 9.48331 6.87596 8.589C7.61605 7.69468 8.5935 7.0272 9.69602 6.66324C13.524 5.40855 17.3818 4.24643 21.2659 3.17789V3.17789Z" fill="#0CA4FB"/>
<g clip-path="url(#clip1_205_1675)">
<path d="M53.9091 31.5902C53.9091 43.1339 44.5479 52.4919 33.0001 52.4919C27.2261 52.4919 21.9989 50.1523 18.2151 46.3699C20.3882 48.5417 23.0294 50.2269 25.9666 51.2796C30.3092 50.5467 35.3574 48.5362 40.2541 45.3579C47.3527 40.7491 52.3343 34.8522 53.8424 29.9168C53.6407 27.3499 52.9635 24.8454 51.848 22.53C53.169 25.271 53.9091 28.3442 53.9091 31.5902Z" fill="white"/>
<path d="M51.4625 21.7704C46.7919 18.9722 37.2157 20.8494 28.1542 26.7319C26.2691 27.9522 24.4765 29.3097 22.791 30.7934C22.2862 30.4199 21.6637 30.2406 21.0375 30.2883C20.4112 30.336 19.8231 30.6076 19.3808 31.0533C18.9384 31.4989 18.6714 32.089 18.6286 32.7153C18.5858 33.3417 18.77 33.9626 19.1476 34.4642C17.0253 36.928 15.5016 39.4231 14.711 41.7275C15.3018 42.7902 15.9802 43.7929 16.7359 44.727C13.8309 41.1375 12.0909 36.567 12.0909 31.5902C12.0909 20.0466 21.4523 10.6886 33 10.6886C40.9971 10.6886 47.9456 15.1765 51.4625 21.7704Z" fill="white"/>
<path d="M16.8058 44.4042C15.3212 42.1181 16.5483 38.4786 19.6115 34.941C20.1035 35.3325 20.7202 35.5335 21.3485 35.5072C21.9767 35.4809 22.5745 35.229 23.032 34.7979C23.4896 34.3667 23.7763 33.785 23.8395 33.1596C23.9028 32.5342 23.7384 31.907 23.3764 31.3929C24.0821 30.8403 24.8322 30.3047 25.6203 29.7926C32.732 25.1773 40.3155 24.2328 42.5593 27.6855C44.8018 31.1382 40.8552 37.6804 33.7435 42.2971C26.6331 46.9124 19.0483 47.8569 16.8058 44.4042Z" fill="white"/>
</g>
</g>
<defs>
<clipPath id="clip0_205_1675">
<rect width="64.1212" height="64.0984" fill="white" transform="translate(0.939453 0.934448)"/>
</clipPath>
<clipPath id="clip1_205_1675">
<rect width="41.8182" height="41.8033" fill="white" transform="translate(12.0909 10.6886)"/>
</clipPath>
</defs>
</svg>
