<svg width="66" height="66" viewBox="0 0 66 66" fill="none" xmlns="http://www.w3.org/2000/svg">
<g clip-path="url(#clip0_205_1677)">
<path d="M21.2659 3.21061C25.6141 2.02879 30.2348 0.967163 33.0001 0.967163C35.7653 0.967163 40.386 2.02879 44.7343 3.21061C49.1827 4.41245 53.6671 5.83463 56.3041 6.69595C57.4066 7.05992 58.3841 7.7274 59.1242 8.62171C59.8643 9.51603 60.337 10.6009 60.488 11.7517C62.8766 29.6872 57.3341 42.9796 50.6094 51.7731C47.7577 55.5348 44.3575 58.8474 40.5223 61.6002C39.1962 62.5528 37.7911 63.3904 36.3224 64.104C35.2002 64.6329 33.994 65.0655 33.0001 65.0655C32.0062 65.0655 30.8039 64.6329 29.6778 64.104C28.2091 63.3905 26.804 62.5528 25.4779 61.6002C21.6427 58.8473 18.2425 55.5347 15.3908 51.7731C8.66607 42.9796 3.1236 29.6872 5.51211 11.7517C5.66315 10.6009 6.13586 9.51603 6.87596 8.62171C7.61605 7.7274 8.5935 7.05992 9.69602 6.69595C13.524 5.44127 17.3818 4.27914 21.2659 3.21061V3.21061Z" fill="#000E16"/>
<g clip-path="url(#clip1_205_1677)">
<path d="M53.9091 31.6229C53.9091 43.1667 44.5479 52.5246 33.0001 52.5246C27.2261 52.5246 21.9989 50.185 18.2151 46.4026C20.3882 48.5744 23.0294 50.2596 25.9666 51.3123C30.3092 50.5794 35.3574 48.5689 40.2541 45.3906C47.3527 40.7818 52.3343 34.8849 53.8424 29.9495C53.6407 27.3826 52.9635 24.8781 51.848 22.5627C53.169 25.3037 53.9091 28.3769 53.9091 31.6229Z" fill="#0CA4FB"/>
<path d="M51.4625 21.8031C46.7919 19.0049 37.2157 20.8822 28.1542 26.7646C26.2691 27.9849 24.4765 29.3425 22.791 30.8261C22.2862 30.4526 21.6637 30.2734 21.0375 30.321C20.4112 30.3687 19.8231 30.6403 19.3808 31.086C18.9384 31.5316 18.6714 32.1217 18.6286 32.748C18.5858 33.3744 18.77 33.9953 19.1476 34.4969C17.0253 36.9607 15.5016 39.4558 14.711 41.7602C15.3018 42.823 15.9802 43.8256 16.7359 44.7598C13.8309 41.1702 12.0909 36.5998 12.0909 31.623C12.0909 20.0793 21.4523 10.7213 33 10.7213C40.9971 10.7213 47.9456 15.2093 51.4625 21.8031Z" fill="#0CA4FB"/>
<path d="M16.8058 44.4369C15.3212 42.1508 16.5483 38.5113 19.6115 34.9737C20.1035 35.3652 20.7202 35.5663 21.3485 35.5399C21.9767 35.5136 22.5745 35.2617 23.032 34.8307C23.4896 34.3994 23.7763 33.8177 23.8395 33.1924C23.9028 32.5669 23.7384 31.9397 23.3764 31.4256C24.0821 30.8731 24.8322 30.3375 25.6203 29.8254C32.732 25.21 40.3155 24.2655 42.5593 27.7182C44.8018 31.1709 40.8552 37.7131 33.7435 42.3298C26.6331 46.9451 19.0483 47.8896 16.8058 44.4369Z" fill="#0CA4FB"/>
</g>
</g>
<defs>
<clipPath id="clip0_205_1677">
<rect width="64.1212" height="64.0984" fill="white" transform="translate(0.939453 0.967163)"/>
</clipPath>
<clipPath id="clip1_205_1677">
<rect width="41.8182" height="41.8033" fill="white" transform="translate(12.0909 10.7213)"/>
</clipPath>
</defs>
</svg>
