<svg width="151" height="151" viewBox="0 0 151 151" fill="none" xmlns="http://www.w3.org/2000/svg">
<circle cx="75.5" cy="75.5" r="72.5" fill="#D9D9D9" stroke="#0CA4FB" stroke-width="6"/>
<path d="M119 151C136.673 151 151 136.673 151 119C151 101.327 136.673 87 119 87C101.327 87 87 101.327 87 119C87 136.673 101.327 151 119 151Z" fill="white"/>
<path d="M151 119C151 136.673 136.673 151 119 151C110.163 151 102.163 147.418 96.3726 141.627C99.6984 144.952 103.74 147.532 108.236 149.144C114.882 148.022 122.608 144.944 130.102 140.078C140.966 133.022 148.59 123.994 150.898 116.438C150.589 112.508 149.553 108.674 147.846 105.129C149.867 109.325 151 114.03 151 119Z" fill="#0CA4FB"/>
<path d="M147.256 103.966C140.108 99.682 125.452 102.556 111.584 111.562C108.699 113.43 105.955 115.509 103.376 117.78C102.603 117.208 101.65 116.934 100.692 117.007C99.7337 117.08 98.8336 117.496 98.1566 118.178C97.4796 118.86 97.071 119.764 97.0055 120.722C96.9399 121.681 97.2219 122.632 97.7998 123.4C94.5518 127.172 92.2198 130.992 91.0098 134.52C91.914 136.147 92.9522 137.682 94.1088 139.112C89.6629 133.617 87 126.619 87 119C87 101.327 101.327 87 119 87C131.239 87 141.873 93.871 147.256 103.966Z" fill="#0CA4FB"/>
<path d="M94.2158 138.618C91.9438 135.118 93.8218 129.546 98.5098 124.13C99.2628 124.729 100.207 125.037 101.168 124.997C102.13 124.957 103.044 124.571 103.745 123.911C104.445 123.251 104.884 122.36 104.981 121.403C105.077 120.445 104.826 119.485 104.272 118.698C105.352 117.852 106.5 117.032 107.706 116.248C118.59 109.182 130.196 107.736 133.63 113.022C137.062 118.308 131.022 128.324 120.138 135.392C109.256 142.458 97.6478 143.904 94.2158 138.618Z" fill="#0CA4FB"/>
</svg>
