<svg width="154" height="152" viewBox="0 0 154 152" fill="none" xmlns="http://www.w3.org/2000/svg">
<circle cx="75.5" cy="75.5" r="72.5" fill="#D9D9D9" stroke="#C2C2C2" stroke-width="6"/>
<path d="M154 123.632C154 138.892 141.464 151.263 126 151.263C110.536 151.263 98 138.892 98 123.632C98 108.371 110.536 96 126 96C141.464 96 154 108.371 154 123.632Z" fill="#C2C2C2"/>
<path d="M126 147.615C139.022 147.615 149.579 136.885 149.579 123.65C149.579 110.414 139.022 99.6842 126 99.6842C112.978 99.6842 102.421 110.414 102.421 123.65C102.421 136.885 112.978 147.615 126 147.615Z" fill="white"/>
<path d="M149.579 123.65C149.579 136.885 139.022 147.615 126 147.615C119.489 147.615 113.594 144.933 109.327 140.596C111.778 143.086 114.756 145.018 118.068 146.225C122.966 145.385 128.658 143.08 134.18 139.435C142.185 134.151 147.803 127.39 149.504 121.731C149.276 118.788 148.513 115.916 147.255 113.261C148.744 116.404 149.579 119.928 149.579 123.65Z" fill="#0CA4FB"/>
<path d="M146.82 112.39C141.553 109.182 130.754 111.334 120.535 118.079C118.41 119.478 116.388 121.035 114.487 122.736C113.918 122.308 113.216 122.102 112.51 122.157C111.804 122.212 111.141 122.523 110.642 123.034C110.143 123.545 109.842 124.222 109.793 124.94C109.745 125.658 109.953 126.37 110.379 126.945C107.986 129.77 106.267 132.631 105.376 135.273C106.042 136.491 106.807 137.641 107.659 138.712C104.383 134.596 102.421 129.356 102.421 123.65C102.421 110.414 112.978 99.6842 126 99.6842C135.018 99.6842 142.854 104.83 146.82 112.39Z" fill="#0CA4FB"/>
<path d="M107.738 138.342C106.064 135.721 107.448 131.548 110.902 127.492C111.457 127.941 112.152 128.171 112.861 128.141C113.569 128.111 114.243 127.822 114.759 127.328C115.275 126.833 115.599 126.166 115.67 125.449C115.741 124.732 115.556 124.013 115.148 123.424C115.943 122.79 116.789 122.176 117.678 121.589C125.698 116.297 134.25 115.214 136.78 119.173C139.309 123.131 134.858 130.633 126.838 135.926C118.82 141.218 110.267 142.301 107.738 138.342Z" fill="#0CA4FB"/>
</svg>
