<svg width="122" height="122" viewBox="0 0 122 122" fill="none" xmlns="http://www.w3.org/2000/svg">
<circle cx="61" cy="61" r="61" fill="#A6A6A6"/>
<circle cx="61" cy="61" r="57" fill="#4B4B4B"/>
<circle cx="61" cy="61" r="54" fill="#A6A6A6"/>
<g clip-path="url(#clip0_59_1549)">
<path d="M61 111C88.6142 111 111 88.6142 111 61C111 33.3858 88.6142 11 61 11C33.3858 11 11 33.3858 11 61C11 88.6142 33.3858 111 61 111Z" fill="#838383"/>
<path d="M111 61C111 88.6144 88.6145 111 61.0001 111C47.1929 111 34.693 105.403 25.6448 96.3553C30.8414 101.551 37.1572 105.582 44.1811 108.1C54.5654 106.347 66.6373 101.538 78.3467 93.9344C95.3217 82.9094 107.234 68.8031 110.84 56.9969C110.358 50.8566 108.739 44.8653 106.071 39.3266C109.23 45.8834 111 53.235 111 61Z" fill="#B5B5B5"/>
<path d="M105.149 37.5093C93.9806 30.8157 71.0809 35.3063 49.4122 49.3781C44.9044 52.2972 40.6176 55.5447 36.5871 59.0938C35.3799 58.2003 33.8914 57.7716 32.3939 57.8856C30.8963 57.9997 29.49 58.6494 28.4322 59.7156C27.3744 60.7816 26.7359 62.1931 26.6335 63.6912C26.5311 65.1897 26.9717 66.675 27.8746 67.875C22.7996 73.7688 19.1559 79.7375 17.2652 85.25C18.6782 87.7922 20.3003 90.1906 22.1076 92.4253C15.1608 83.8384 11 72.9053 11 61C11 33.3857 33.3857 11 61 11C80.1234 11 96.7394 21.7359 105.149 37.5093Z" fill="#B5B5B5"/>
<path d="M22.2747 91.6531C18.7247 86.1844 21.6591 77.4781 28.9841 69.0156C30.1606 69.9522 31.6353 70.4331 33.1377 70.37C34.6401 70.3072 36.0695 69.7047 37.1636 68.6734C38.2578 67.6418 38.9433 66.2503 39.0946 64.7544C39.2459 63.2581 38.8527 61.7578 37.9872 60.5281C39.6747 59.2062 41.4685 57.925 43.3529 56.7C60.3591 45.6593 78.4935 43.4 83.8591 51.6593C89.2216 59.9187 79.7841 75.5687 62.7779 86.6125C45.7748 97.6531 27.6372 99.9125 22.2747 91.6531Z" fill="#B5B5B5"/>
</g>
<circle cx="61.5" cy="60.5" r="59.5" fill="url(#paint0_radial_59_1549)"/>
<circle cx="61.5" cy="60.5" r="59.5" fill="url(#paint1_radial_59_1549)" fill-opacity="0.2"/>
<defs>
<radialGradient id="paint0_radial_59_1549" cx="0" cy="0" r="1" gradientUnits="userSpaceOnUse" gradientTransform="translate(93.3969 112.639) rotate(-123.799) scale(89.3169)">
<stop stop-color="#D9D9D9"/>
<stop offset="1" stop-color="#D9D9D9" stop-opacity="0"/>
</radialGradient>
<radialGradient id="paint1_radial_59_1549" cx="0" cy="0" r="1" gradientUnits="userSpaceOnUse" gradientTransform="translate(20 12.5) rotate(52.389) scale(123.71)">
<stop/>
<stop offset="1" stop-opacity="0"/>
</radialGradient>
<clipPath id="clip0_59_1549">
<rect width="100" height="100" fill="white" transform="translate(11 11)"/>
</clipPath>
</defs>
</svg>
