<?xml version="1.0" standalone="no"?>
<!DOCTYPE svg PUBLIC "-//W3C//DTD SVG 20010904//EN"
 "http://www.w3.org/TR/2001/REC-SVG-20010904/DTD/svg10.dtd">
<svg version="1.0" xmlns="http://www.w3.org/2000/svg"
 width="700.000000pt" height="700.000000pt" viewBox="0 0 700.000000 700.000000"
 preserveAspectRatio="xMidYMid meet">
<metadata>
Created by potrace 1.14, written by Peter Selinger 2001-2017
</metadata>
<g transform="translate(0.000000,700.000000) scale(0.100000,-0.100000)"
fill="#000000" stroke="none">
<path d="M3358 6995 c-1 -2 -28 -6 -58 -9 -56 -5 -172 -21 -224 -31 -370 -71
-779 -174 -1271 -318 -66 -20 -158 -47 -205 -61 -244 -71 -657 -205 -720 -233
-106 -46 -211 -140 -281 -248 -67 -105 -91 -189 -115 -395 -10 -88 -12 -110
-19 -195 -4 -44 -8 -98 -10 -120 -21 -232 -21 -787 0 -945 3 -19 7 -66 10
-105 2 -38 7 -86 9 -105 3 -19 8 -57 11 -85 3 -27 7 -61 10 -75 2 -14 7 -43
10 -65 110 -775 407 -1561 842 -2227 26 -40 50 -75 53 -78 3 -3 10 -12 15 -21
45 -72 208 -289 308 -409 198 -237 439 -478 672 -671 50 -41 92 -76 95 -79 3
-3 55 -42 115 -87 168 -124 335 -227 500 -309 332 -163 473 -161 813 12 159
81 163 83 302 175 389 256 798 634 1118 1034 40 50 76 95 80 100 166 226 246
345 358 530 115 191 344 649 344 687 0 8 4 18 9 23 29 31 196 525 251 745 74
290 132 632 155 905 2 22 6 67 9 100 22 232 22 734 0 960 -2 28 -7 84 -10 125
-2 41 -6 86 -9 100 -2 14 -6 50 -10 80 -24 214 -50 300 -126 412 -67 99 -156
176 -259 225 -153 73 -1391 445 -1657 498 -10 2 -63 14 -118 28 -124 32 -423
92 -530 107 -44 6 -91 14 -105 16 -29 6 -357 14 -362 9z"/>
</g>
</svg>
