<?xml version="1.0" standalone="no"?>
<!DOCTYPE svg PUBLIC "-//W3C//DTD SVG 20010904//EN"
 "http://www.w3.org/TR/2001/REC-SVG-20010904/DTD/svg10.dtd">
<svg version="1.0" xmlns="http://www.w3.org/2000/svg"
 width="700.000000pt" height="700.000000pt" viewBox="0 0 700.000000 700.000000"
 preserveAspectRatio="xMidYMid meet">
<metadata>
Created by potrace 1.14, written by Peter Selinger 2001-2017
</metadata>
<g transform="translate(0.000000,700.000000) scale(0.100000,-0.100000)"
fill="#000000" stroke="none">
<path d="M3355 6994 c-16 -2 -82 -11 -145 -20 -372 -51 -1086 -233 -1845 -470
-530 -166 -545 -173 -671 -298 -132 -132 -174 -230 -204 -466 -38 -308 -45
-430 -45 -840 1 -349 4 -433 23 -607 128 -1172 541 -2160 1271 -3043 121 -146
483 -509 624 -626 275 -227 486 -370 722 -489 198 -101 293 -130 420 -129 85
0 114 5 193 32 365 125 870 485 1307 933 784 803 1291 1821 1480 2972 86 520
98 1128 34 1717 -21 196 -36 267 -70 346 -57 130 -187 266 -311 327 -105 51
-809 272 -1303 407 -378 104 -788 197 -1035 235 -102 15 -385 28 -445 19z
m485 -1089 c656 -102 1247 -490 1589 -1043 82 -132 81 -125 4 -90 -553 250
-1590 -4 -2508 -615 -156 -104 -318 -225 -440 -327 l-98 -82 -46 22 c-110 54
-244 29 -332 -61 -60 -62 -83 -125 -77 -217 2 -42 12 -83 25 -111 l22 -44 -81
-101 c-152 -191 -288 -415 -363 -598 l-34 -83 -55 115 c-212 443 -275 941
-180 1420 155 783 700 1423 1447 1699 175 65 385 112 602 135 85 9 424 -4 525
-19z m410 -1635 c474 -137 475 -628 2 -1199 -352 -425 -966 -820 -1500 -967
-205 -56 -289 -68 -472 -68 -180 1 -267 17 -367 67 -311 159 -324 524 -36 962
33 50 83 118 111 152 l52 62 47 -27 c41 -23 59 -27 128 -27 67 0 88 5 131 27
135 71 195 236 135 372 -11 27 -21 50 -21 52 0 2 44 34 97 72 399 284 843 479
1225 537 136 21 370 13 468 -15z m1527 -669 c-23 -599 -238 -1112 -641 -1529
-370 -382 -836 -614 -1371 -683 -116 -15 -414 -15 -530 0 -124 16 -273 47
-377 78 -85 25 -112 43 -65 43 40 0 326 77 467 125 937 322 1875 1035 2317
1763 69 114 139 254 169 339 29 82 38 43 31 -136z"/>
</g>
</svg>
