<svg width="81" height="24" viewBox="0 0 81 24" fill="none" xmlns="http://www.w3.org/2000/svg">
<g clip-path="url(#clip0_253_1825)">
<path d="M80.4626 21.1667C80.4626 21.4687 80.4031 21.7678 80.2874 22.0469C80.1717 22.3259 80.0021 22.5794 79.7884 22.7929C79.5746 23.0064 79.3208 23.1756 79.0416 23.291C78.7624 23.4064 78.4631 23.4656 78.161 23.4653H2.83895C2.22846 23.4659 1.64271 23.2241 1.21052 22.7931C0.778335 22.362 0.535097 21.777 0.534302 21.1667V2.83581C0.535097 2.22521 0.778239 1.63988 1.21034 1.20834C1.64244 0.776805 2.22818 0.534338 2.83895 0.53418H78.1604C78.4627 0.53418 78.762 0.593718 79.0413 0.709393C79.3206 0.825068 79.5744 0.994615 79.7881 1.20835C80.0018 1.42208 80.1714 1.67582 80.287 1.95506C80.4026 2.2343 80.4621 2.53359 80.462 2.83581L80.4626 21.1667Z" fill="white"/>
<path d="M78.161 24H2.83893C2.08688 23.9998 1.36561 23.7014 0.833375 23.1702C0.301144 22.639 0.00143095 21.9185 0 21.1666L0 2.83638C0.00111255 2.08415 0.300628 1.36308 0.832842 0.831349C1.36506 0.299613 2.08651 0.000634906 2.83893 0L78.1604 0C78.9127 0.00095171 79.634 0.300032 80.1661 0.831699C80.6983 1.36337 80.9979 2.08425 80.9993 2.83638V21.1666C81.0005 22.7294 79.7248 24 78.161 24V24Z" fill="#A6A6A6"/>
<path d="M80.4626 21.1667C80.4626 21.4687 80.4031 21.7678 80.2874 22.0469C80.1717 22.3259 80.0021 22.5794 79.7884 22.7929C79.5746 23.0064 79.3208 23.1756 79.0416 23.291C78.7624 23.4064 78.4631 23.4656 78.161 23.4653H2.83895C2.22846 23.4659 1.64271 23.2241 1.21052 22.7931C0.778335 22.362 0.535097 21.777 0.534302 21.1667V2.83581C0.535097 2.22521 0.778239 1.63988 1.21034 1.20834C1.64244 0.776805 2.22818 0.534338 2.83895 0.53418H78.1604C78.4627 0.53418 78.762 0.593718 79.0413 0.709393C79.3206 0.825068 79.5744 0.994615 79.7881 1.20835C80.0018 1.42208 80.1714 1.67582 80.287 1.95506C80.4026 2.2343 80.4621 2.53359 80.462 2.83581L80.4626 21.1667Z" fill="black"/>
<path d="M18.0866 11.8736C18.0692 9.93931 19.6708 8.99825 19.7441 8.95444C18.837 7.63227 17.431 7.45162 16.937 7.43722C15.7561 7.31299 14.6107 8.14361 14.0092 8.14361C13.3957 8.14361 12.4694 7.44922 11.471 7.46963C10.1863 7.48943 8.98448 8.23304 8.32533 9.38776C6.96499 11.7422 7.97954 15.2022 9.28284 17.1053C9.9348 18.0379 10.6966 19.078 11.6937 19.0414C12.6693 19.0018 13.0337 18.4202 14.2109 18.4202C15.3773 18.4202 15.7195 19.0414 16.7365 19.018C17.7834 19.0018 18.4426 18.0817 19.0717 17.1413C19.8251 16.0736 20.1277 15.0209 20.1397 14.9669C20.1157 14.9585 18.107 14.1915 18.0866 11.8736V11.8736ZM16.1656 6.18528C16.6902 5.52929 17.0492 4.63685 16.9496 3.7312C16.1902 3.76481 15.2405 4.25635 14.6936 4.89792C14.2097 5.46328 13.7775 6.38993 13.8891 7.26137C14.7422 7.32499 15.6181 6.83105 16.1656 6.18528V6.18528Z" fill="white"/>
<path d="M78.1609 0H37.8162L53.6185 24H78.1609C78.9132 23.9994 79.6344 23.7005 80.1666 23.1691C80.6988 22.6376 80.9984 21.9168 80.9999 21.1648V2.83638C80.9986 2.0842 80.699 1.36322 80.1669 0.831524C79.6347 0.299823 78.9133 0.000793368 78.1609 0V0Z" fill="url(#paint0_linear_253_1825)"/>
<path d="M32.2164 18.9076H30.8531L30.1063 16.5615H27.5105L26.7991 18.9076H25.4718L28.0442 10.9206H29.6326L32.2164 18.9076ZM29.8812 15.5773L29.2058 13.4917C29.1344 13.2786 28.9999 12.7769 28.803 11.9871H28.779C28.6997 12.3268 28.5731 12.8285 28.3996 13.4917L27.7356 15.5773H29.8812ZM38.8188 15.9572C38.8188 16.9367 38.5529 17.7109 38.0204 18.2792C37.5437 18.7852 36.9512 19.0378 36.2446 19.0378C35.4816 19.0378 34.9329 18.766 34.5997 18.221V21.2428H33.3198V15.0413C33.3198 14.4262 33.3036 13.7954 33.2724 13.1484H34.398L34.4695 14.0613H34.4935C34.9203 13.3735 35.5681 13.0296 36.4373 13.0296C37.1169 13.0296 37.6842 13.2979 38.138 13.835C38.5913 14.3733 38.8188 15.0803 38.8188 15.9572V15.9572ZM37.5149 16.004C37.5149 15.4434 37.3888 14.9813 37.1355 14.617C36.8587 14.2383 36.4871 14.0487 36.0213 14.0487C35.7055 14.0487 35.4186 14.1543 35.1622 14.3625C34.9053 14.5726 34.7372 14.8469 34.6586 15.1866C34.6235 15.3136 34.6035 15.4444 34.5991 15.5761V16.5369C34.5991 16.9553 34.7276 17.3088 34.9845 17.598C35.2415 17.8861 35.5753 18.0308 35.9859 18.0308C36.4679 18.0308 36.8431 17.8441 37.1115 17.4738C37.3804 17.1023 37.5149 16.6126 37.5149 16.004V16.004ZM45.4446 15.9572C45.4446 16.9367 45.1786 17.7109 44.6462 18.2792C44.1689 18.7852 43.577 19.0378 42.8698 19.0378C42.1068 19.0378 41.5581 18.766 41.2249 18.221V21.2428H39.945V15.0413C39.945 14.4262 39.9288 13.7954 39.8976 13.1484H41.0232L41.0946 14.0613H41.1186C41.5449 13.3735 42.1926 13.0296 43.0625 13.0296C43.7415 13.0296 44.3088 13.2979 44.7638 13.835C45.2165 14.3733 45.4446 15.0803 45.4446 15.9572V15.9572ZM44.1401 16.004C44.1401 15.4434 44.0134 14.9813 43.7601 14.617C43.4833 14.2383 43.1129 14.0487 42.6471 14.0487C42.3313 14.0487 42.0443 14.1543 41.7868 14.3625C41.5299 14.5726 41.3624 14.8469 41.2837 15.1866C41.2447 15.345 41.2237 15.474 41.2237 15.5761V16.5369C41.2237 16.9553 41.3528 17.3088 41.6085 17.598C41.8654 17.8855 42.1992 18.0308 42.6111 18.0308C43.0937 18.0308 43.4689 17.8441 43.7367 17.4738C44.0056 17.1023 44.1401 16.6126 44.1401 16.004V16.004ZM52.8526 16.6672C52.8526 17.3472 52.6149 17.8999 52.1424 18.3266C51.6225 18.7924 50.8967 19.0258 49.9662 19.0258C49.1066 19.0258 48.4174 18.8602 47.8975 18.5283L48.1935 17.4618C48.7548 17.7943 49.3713 17.9599 50.0425 17.9599C50.5251 17.9599 50.9003 17.8507 51.1681 17.634C51.4364 17.4168 51.5721 17.1263 51.5721 16.7638C51.5721 16.4391 51.4598 16.1672 51.2395 15.9458C51.018 15.7249 50.6518 15.5191 50.1373 15.33C48.7386 14.8085 48.0386 14.0457 48.0386 13.0422C48.0386 12.3868 48.2859 11.8503 48.7794 11.4307C49.2728 11.0118 49.9272 10.8024 50.7412 10.8024C51.4682 10.8024 52.074 10.929 52.5548 11.1817L52.2336 12.2248C51.781 11.9799 51.2701 11.8575 50.6986 11.8575C50.2472 11.8575 49.893 11.9685 49.6396 12.1893C49.4265 12.3868 49.3185 12.6275 49.3185 12.9131C49.3185 13.2282 49.4415 13.4899 49.6865 13.6952C49.899 13.8842 50.2868 14.0901 50.8475 14.3109C51.5355 14.5882 52.0409 14.9111 52.3645 15.282C52.6905 15.6529 52.8526 16.1156 52.8526 16.6672ZM57.0951 14.1087H55.6843V16.9048C55.6843 17.616 55.9328 17.9707 56.4311 17.9707C56.6598 17.9707 56.8495 17.9515 56.9996 17.9113L57.035 18.883C56.7829 18.9772 56.4509 19.0246 56.0397 19.0246C55.5342 19.0246 55.1392 18.8704 54.8541 18.5619C54.5701 18.2534 54.4272 17.7367 54.4272 17.0093V14.1063H53.5868V13.146H54.4272V12.0915L55.6843 11.7122V13.146H57.0951V14.1087ZM63.4477 15.9806C63.4477 16.8658 63.1944 17.5926 62.6889 18.161C62.16 18.7461 61.4564 19.0378 60.5794 19.0378C59.7329 19.0378 59.0599 18.7576 58.5581 18.1976C58.0562 17.6364 57.8053 16.9295 57.8053 16.0766C57.8053 15.1842 58.0646 14.4532 58.5815 13.8848C59.0996 13.3159 59.7971 13.0314 60.6742 13.0314C61.5195 13.0314 62.1984 13.3123 62.7123 13.8728C63.2034 14.4166 63.4477 15.1188 63.4477 15.9806ZM62.121 16.01C62.121 15.4825 62.0069 15.0299 61.7782 14.6512C61.5099 14.1939 61.1256 13.9652 60.628 13.9652C60.1153 13.9652 59.7221 14.1939 59.4543 14.6512C59.225 15.0299 59.111 15.4903 59.111 16.034C59.111 16.5621 59.225 17.0159 59.4543 17.3934C59.7311 17.8507 60.1171 18.0794 60.6172 18.0794C61.1064 18.0794 61.49 17.8459 61.7674 17.382C62.0027 16.9943 62.121 16.5387 62.121 16.01ZM67.6097 14.2737C67.4766 14.2497 67.3416 14.2378 67.2063 14.2383C66.7561 14.2383 66.4079 14.4076 66.163 14.7485C65.9504 15.0485 65.8436 15.4278 65.8436 15.8858V18.9076H64.5637V14.9621C64.5648 14.3575 64.5524 13.753 64.5265 13.149H65.6413L65.6881 14.2509H65.7235C65.8592 13.8722 66.0717 13.5667 66.3635 13.3381C66.6305 13.1383 66.955 13.0301 67.2886 13.0296C67.4068 13.0296 67.5137 13.038 67.6085 13.053L67.6097 14.2737ZM73.3338 15.7555C73.3371 15.95 73.3214 16.1444 73.287 16.3359H69.4473C69.4617 16.9048 69.6478 17.3406 70.0044 17.6406C70.328 17.9083 70.7464 18.0428 71.2603 18.0428C71.8288 18.0428 72.3475 17.9527 72.814 17.7709L73.0145 18.6585C72.4694 18.8962 71.8258 19.0144 71.0832 19.0144C70.1899 19.0144 69.4888 18.7516 68.9785 18.227C68.4694 17.7019 68.2143 16.9961 68.2143 16.112C68.2143 15.2442 68.4514 14.521 68.9263 13.9442C69.4233 13.3285 70.0951 13.0206 70.9403 13.0206C71.7706 13.0206 72.3991 13.3285 72.826 13.9442C73.1639 14.4322 73.3338 15.0371 73.3338 15.7555V15.7555ZM72.1134 15.4236C72.1224 15.0437 72.0383 14.7166 71.8648 14.44C71.6433 14.0835 71.3023 13.9058 70.8455 13.9058C70.4271 13.9058 70.0861 14.0793 69.8267 14.4274C69.6136 14.704 69.487 15.0365 69.4479 15.4224L72.1134 15.4236Z" fill="white"/>
<path d="M27.1414 8.09681C26.7854 8.09681 26.4774 8.0794 26.2211 8.04999V4.18853C26.5796 4.13316 26.9419 4.10587 27.3047 4.10691C28.7724 4.10691 29.4484 4.82891 29.4484 6.00583C29.4484 7.3634 28.65 8.09681 27.1414 8.09681ZM27.3563 4.60205C27.1582 4.60205 26.9895 4.61405 26.8496 4.64286V7.57826C26.9252 7.59027 27.0705 7.59567 27.2746 7.59567C28.2364 7.59567 28.7839 7.04832 28.7839 6.02324C28.7839 5.10918 28.2886 4.60205 27.3563 4.60205V4.60205ZM31.5549 8.12621C30.7277 8.12621 30.1916 7.50864 30.1916 6.67021C30.1916 5.79637 30.7391 5.1734 31.6018 5.1734C32.417 5.1734 32.9651 5.76156 32.9651 6.624C32.9651 7.50864 32.4002 8.12621 31.5549 8.12621V8.12621ZM31.579 5.63313C31.1245 5.63313 30.8334 6.05804 30.8334 6.65221C30.8334 7.23497 31.1305 7.65988 31.573 7.65988C32.0154 7.65988 32.3126 7.20556 32.3126 6.6402C32.3126 6.06405 32.0214 5.63313 31.579 5.63313ZM37.6825 5.23162L36.797 8.062H36.2201L35.8533 6.83286C35.7621 6.5322 35.6861 6.22713 35.6257 5.91881H35.6137C35.5675 6.22729 35.4799 6.53638 35.3868 6.83286L34.9966 8.062H34.4137L33.5804 5.23162H34.227L34.5476 6.57719C34.6232 6.89768 34.6868 7.20016 34.7397 7.48584H34.7517C34.7979 7.24757 34.8735 6.94989 34.9846 6.58319L35.3868 5.23222H35.8995L36.2843 6.55438C36.3774 6.87487 36.453 7.18936 36.5118 7.48644H36.5286C36.5695 7.19536 36.6337 6.88627 36.7207 6.55438L37.0647 5.23222L37.6825 5.23162ZM40.9422 8.062H40.3131V6.43675C40.3131 5.93621 40.121 5.68534 39.7422 5.68534C39.3694 5.68534 39.113 6.00583 39.113 6.37853V8.062H38.4839V6.04064C38.4839 5.79037 38.4779 5.5221 38.4605 5.23102H39.014L39.0434 5.66794H39.0608C39.2301 5.36545 39.5735 5.1734 39.9583 5.1734C40.5526 5.1734 40.9428 5.62773 40.9428 6.36713L40.9422 8.062ZM42.6771 8.062H42.0474V3.93286H42.6771V8.062ZM44.971 8.12621C44.1443 8.12621 43.6077 7.50864 43.6077 6.67021C43.6077 5.79637 44.1551 5.1734 45.0172 5.1734C45.8331 5.1734 46.3805 5.76156 46.3805 6.624C46.3811 7.50864 45.8156 8.12621 44.971 8.12621ZM44.9944 5.63313C44.54 5.63313 44.2488 6.05804 44.2488 6.65221C44.2488 7.23497 44.5466 7.65988 44.9878 7.65988C45.4308 7.65988 45.7274 7.20556 45.7274 6.6402C45.728 6.06405 45.4374 5.63313 44.9944 5.63313V5.63313ZM48.8611 8.062L48.8155 7.73611H48.7987C48.6066 7.99838 48.3262 8.12621 47.9708 8.12621C47.4635 8.12621 47.1033 7.77092 47.1033 7.29318C47.1033 6.59459 47.7091 6.23329 48.7578 6.23329V6.18108C48.7578 5.80838 48.5603 5.62172 48.1701 5.62172C47.891 5.62172 47.646 5.69194 47.4305 5.83178L47.3026 5.41827C47.5644 5.25502 47.891 5.1734 48.2746 5.1734C49.0142 5.1734 49.3876 5.56351 49.3876 6.34432V7.38681C49.3876 7.67249 49.4002 7.89395 49.4284 8.0626L48.8611 8.062ZM48.7746 6.65221C48.0759 6.65221 47.7253 6.82145 47.7253 7.22296C47.7253 7.52005 47.906 7.66529 48.1569 7.66529C48.4769 7.66529 48.7746 7.42102 48.7746 7.08913V6.65221ZM52.4426 8.062L52.4132 7.60767H52.3958C52.2151 7.95096 51.9113 8.12621 51.4869 8.12621C50.8043 8.12621 50.2989 7.52605 50.2989 6.68162C50.2989 5.79637 50.8229 5.1728 51.5385 5.1728C51.9173 5.1728 52.1857 5.30064 52.337 5.55751H52.3496V3.93286H52.9793V7.29919C52.9793 7.57286 52.9859 7.82913 53.0027 8.062H52.4426ZM52.3496 6.39654C52.3496 6.00043 52.0872 5.66254 51.6868 5.66254C51.2204 5.66254 50.9352 6.07605 50.9352 6.65821C50.9352 7.22897 51.2312 7.61967 51.6742 7.61967C52.0698 7.61967 52.3496 7.27578 52.3496 6.86827V6.39654ZM56.9721 8.12621C56.1454 8.12621 55.6093 7.50864 55.6093 6.67021C55.6093 5.79637 56.1568 5.1734 57.0189 5.1734C57.8347 5.1734 58.3822 5.76156 58.3822 6.624C58.3828 7.50864 57.8179 8.12621 56.9721 8.12621ZM56.9955 5.63313C56.5416 5.63313 56.2505 6.05804 56.2505 6.65221C56.2505 7.23497 56.5476 7.65988 56.9895 7.65988C57.4325 7.65988 57.7291 7.20556 57.7291 6.6402C57.7303 6.06405 57.4391 5.63313 56.9955 5.63313ZM61.7657 8.062H61.1359V6.43675C61.1359 5.93621 60.9438 5.68534 60.565 5.68534C60.1922 5.68534 59.9365 6.00583 59.9365 6.37853V8.062H59.3067V6.04064C59.3067 5.79037 59.3007 5.5221 59.2833 5.23102H59.8368L59.8662 5.66794H59.8836C60.0523 5.36545 60.3963 5.1728 60.7805 5.1728C61.3748 5.1728 61.7657 5.62713 61.7657 6.36653V8.062ZM65.9985 5.70335H65.3064V7.07773C65.3064 7.42762 65.4276 7.60227 65.6726 7.60227C65.7836 7.60227 65.8767 7.59027 65.9517 7.57286L65.9691 8.05059C65.8473 8.0974 65.684 8.12081 65.4811 8.12081C64.9852 8.12081 64.6886 7.84714 64.6886 7.13054V5.70335H64.2756V5.23162H64.6886V4.71308L65.3064 4.52642V5.23102H65.9985V5.70335ZM69.3291 8.062H68.7006V6.44875C68.7006 5.94221 68.5091 5.68594 68.1297 5.68594C67.8037 5.68594 67.4999 5.9074 67.4999 6.35573V8.062H66.8714V3.93286H67.4999V5.63313H67.5126C67.7107 5.32464 67.9976 5.1728 68.3638 5.1728C68.9629 5.1728 69.3291 5.63853 69.3291 6.37853V8.062ZM72.7414 6.79805H70.8534C70.8654 7.334 71.2202 7.63648 71.7454 7.63648C72.0246 7.63648 72.2815 7.58967 72.5084 7.50264L72.6063 7.93956C72.3386 8.05599 72.0234 8.11421 71.6566 8.11421C70.7711 8.11421 70.247 7.55486 70.247 6.68762C70.247 5.81978 70.7837 5.1674 71.5858 5.1674C72.3091 5.1674 72.763 5.70335 72.763 6.51297C72.7671 6.60852 72.7598 6.70421 72.7414 6.79805V6.79805ZM72.1645 6.34973C72.1645 5.91281 71.9441 5.60432 71.5419 5.60432C71.1805 5.60432 70.8948 5.91881 70.854 6.34973H72.1645Z" fill="white"/>
</g>
<defs>
<linearGradient id="paint0_linear_253_1825" x1="59.4073" y1="24.0637" x2="59.4073" y2="-62.4919" gradientUnits="userSpaceOnUse">
<stop stop-color="#1A1A1A" stop-opacity="0.1"/>
<stop offset="0.123" stop-color="#212121" stop-opacity="0.151"/>
<stop offset="0.308" stop-color="#353535" stop-opacity="0.227"/>
<stop offset="0.532" stop-color="#575757" stop-opacity="0.318"/>
<stop offset="0.783" stop-color="#858585" stop-opacity="0.421"/>
<stop offset="1" stop-color="#B3B3B3" stop-opacity="0.51"/>
</linearGradient>
<clipPath id="clip0_253_1825">
<rect width="80.9784" height="24" fill="white"/>
</clipPath>
</defs>
</svg>
