<svg width="81" height="23" viewBox="0 0 81 23" fill="none" xmlns="http://www.w3.org/2000/svg">
<path d="M0.5 2.3C0.5 1.32573 1.33039 0.5 2.4 0.5H78.6C79.6696 0.5 80.5 1.32573 80.5 2.3V20.7C80.5 21.6743 79.6696 22.5 78.6 22.5H2.4C1.33039 22.5 0.5 21.6743 0.5 20.7V2.3Z" fill="black" stroke="#A6A6A6"/>
<path d="M25.7112 18.9749V14.3726H26.7048L29.1744 17.5604L28.8288 18.2504V14.3726H29.9016V18.9749H29.0232L26.5104 15.8285L26.784 15.3248V18.9749H25.7112Z" fill="white"/>
<path d="M32.5341 19.0784C32.1693 19.0784 31.8453 19.0071 31.5621 18.8645C31.2837 18.7173 31.0653 18.5103 30.9069 18.2435C30.7533 17.9721 30.6765 17.6501 30.6765 17.2775C30.6765 16.6703 30.8325 16.2011 31.1445 15.8699C31.4613 15.5341 31.9125 15.3662 32.4981 15.3662C32.9013 15.3662 33.2253 15.449 33.4701 15.6146C33.7197 15.7802 33.9021 16.0217 34.0173 16.3391C34.1325 16.6565 34.1877 17.0429 34.1829 17.4983H31.4109L31.2957 16.8428H33.2973L33.1389 17.1671C33.1341 16.7945 33.0789 16.5323 32.9733 16.3805C32.8677 16.2287 32.6949 16.1528 32.4549 16.1528C32.3205 16.1528 32.1981 16.185 32.0877 16.2494C31.9821 16.3138 31.8981 16.4219 31.8357 16.5737C31.7781 16.7209 31.7493 16.9256 31.7493 17.1878C31.7493 17.519 31.8309 17.7743 31.9941 17.9537C32.1621 18.1331 32.4285 18.2228 32.7933 18.2228C32.9277 18.2228 33.0597 18.209 33.1893 18.1814C33.3237 18.1492 33.4485 18.1124 33.5637 18.071C33.6789 18.0296 33.7773 17.9928 33.8589 17.9606V18.8438C33.6861 18.9128 33.4917 18.968 33.2757 19.0094C33.0645 19.0554 32.8173 19.0784 32.5341 19.0784Z" fill="white"/>
<path d="M36.7283 17.5811L35.7347 18.9749H34.6043L36.2387 16.9256L36.7283 17.5811ZM38.5139 18.9749H37.2395L34.6403 15.4835H35.9075L38.5139 18.9749ZM36.4115 16.9118L37.4339 15.4835H38.5715L36.9011 17.5811L36.4115 16.9118Z" fill="white"/>
<path d="M40.9169 19.0784C40.5809 19.0784 40.2833 19.0278 40.0241 18.9266C39.7649 18.8254 39.5633 18.6713 39.4193 18.4643C39.2753 18.2527 39.2033 17.979 39.2033 17.6432V15.4835H40.2761V17.5604C40.2761 17.7812 40.3265 17.9468 40.4273 18.0572C40.5329 18.163 40.6985 18.2159 40.9241 18.2159C41.1545 18.2159 41.3201 18.163 41.4209 18.0572C41.5217 17.9468 41.5721 17.7812 41.5721 17.5604V15.4835H42.5801V17.6432C42.5801 18.14 42.4313 18.5034 42.1337 18.7334C41.8361 18.9634 41.4305 19.0784 40.9169 19.0784Z" fill="white"/>
<path d="M44.6075 19.0784C44.3483 19.0784 44.1251 19.0508 43.9379 18.9956C43.7555 18.945 43.5827 18.8875 43.4195 18.8231V17.9192C43.5203 17.9836 43.6331 18.0503 43.7579 18.1193C43.8827 18.1837 44.0195 18.2366 44.1683 18.278C44.3219 18.3194 44.4827 18.3401 44.6507 18.3401C44.8235 18.3401 44.9435 18.3125 45.0107 18.2573C45.0827 18.1975 45.1187 18.1262 45.1187 18.0434C45.1187 17.9652 45.0827 17.9031 45.0107 17.8571C44.9387 17.8065 44.8451 17.7651 44.7299 17.7329C44.6147 17.7007 44.4923 17.6708 44.3627 17.6432C44.2475 17.6202 44.1323 17.5857 44.0171 17.5397C43.9019 17.4891 43.7987 17.4224 43.7075 17.3396C43.6163 17.2568 43.5419 17.1556 43.4843 17.036C43.4315 16.9118 43.4051 16.7623 43.4051 16.5875C43.4051 16.3621 43.4507 16.1758 43.5419 16.0286C43.6331 15.8768 43.7531 15.7549 43.9019 15.6629C44.0507 15.5709 44.2115 15.5065 44.3843 15.4697C44.5571 15.4283 44.7251 15.4099 44.8883 15.4145C45.1859 15.4237 45.4211 15.4559 45.5939 15.5111C45.7715 15.5617 45.9323 15.6284 46.0763 15.7112V16.5185C45.9131 16.4311 45.7499 16.3506 45.5867 16.277C45.4283 16.1988 45.2459 16.1597 45.0395 16.1597C44.8523 16.1597 44.7179 16.1873 44.6363 16.2425C44.5547 16.2977 44.5139 16.3713 44.5139 16.4633C44.5139 16.5507 44.5403 16.6197 44.5931 16.6703C44.6507 16.7209 44.7251 16.7623 44.8163 16.7945C44.9075 16.8221 45.0083 16.8497 45.1187 16.8773C45.2387 16.9049 45.3611 16.9394 45.4859 16.9808C45.6155 17.0176 45.7355 17.0728 45.8459 17.1464C45.9611 17.2154 46.0523 17.3143 46.1195 17.4431C46.1915 17.5673 46.2275 17.7329 46.2275 17.9399C46.2227 18.2205 46.1435 18.4459 45.9899 18.6161C45.8363 18.7817 45.6371 18.9013 45.3923 18.9749C45.1523 19.0439 44.8907 19.0784 44.6075 19.0784Z" fill="white"/>
<path d="M50.042 18.9749L48.6956 14.3726H49.97L50.8124 17.9468H50.618L51.698 14.3726H52.598L53.6996 17.9951H53.4836L54.3332 14.3726H55.6076L54.2612 18.9749H53.1092L52.0508 15.6629H52.2596L51.194 18.9749H50.042Z" fill="white"/>
<path d="M57.3065 19.0784C57.0857 19.0784 56.8769 19.0577 56.6801 19.0163C56.4881 18.9795 56.3177 18.9174 56.1689 18.83C56.0249 18.738 55.9121 18.6161 55.8305 18.4643C55.7489 18.3079 55.7081 18.1147 55.7081 17.8847C55.7081 17.6685 55.7537 17.4799 55.8449 17.3189C55.9409 17.1579 56.0849 17.0337 56.2769 16.9463C56.4689 16.8589 56.7113 16.8152 57.0041 16.8152C57.1673 16.8152 57.3257 16.8313 57.4793 16.8635C57.6329 16.8957 57.7697 16.9394 57.8897 16.9946C58.0145 17.0498 58.1129 17.1096 58.1849 17.174L58.2281 17.6708C58.1321 17.6156 58.0169 17.5719 57.8825 17.5397C57.7481 17.5075 57.6041 17.4914 57.4505 17.4914C57.2153 17.4914 57.0425 17.5259 56.9321 17.5949C56.8265 17.6593 56.7737 17.7628 56.7737 17.9054C56.7737 17.9928 56.8001 18.071 56.8529 18.14C56.9057 18.209 56.9753 18.2619 57.0617 18.2987C57.1529 18.3355 57.2465 18.3539 57.3425 18.3539C57.5873 18.3539 57.7577 18.3378 57.8537 18.3056C57.9545 18.2734 58.0049 18.209 58.0049 18.1124V16.829C58.0049 16.6174 57.9329 16.4656 57.7889 16.3736C57.6497 16.277 57.4505 16.2287 57.1913 16.2287C56.9801 16.2287 56.7665 16.2655 56.5505 16.3391C56.3393 16.4081 56.1665 16.4932 56.0321 16.5944V15.6836C56.1569 15.61 56.3489 15.541 56.6081 15.4766C56.8721 15.4122 57.1673 15.38 57.4937 15.38C57.6089 15.38 57.7361 15.3892 57.8753 15.4076C58.0145 15.426 58.1537 15.4605 58.2929 15.5111C58.4321 15.5571 58.5593 15.6261 58.6745 15.7181C58.7945 15.8101 58.8905 15.9274 58.9625 16.07C59.0345 16.2126 59.0705 16.3897 59.0705 16.6013L59.0633 18.2504C59.0633 18.4482 58.9937 18.6092 58.8545 18.7334C58.7153 18.853 58.5137 18.9404 58.2497 18.9956C57.9905 19.0508 57.6761 19.0784 57.3065 19.0784Z" fill="white"/>
<path d="M61.0884 18.9749H60.0228V14.1656H61.0884V18.9749Z" fill="white"/>
<path d="M63.1064 18.9749H62.0408V14.1656H63.1064V18.9749Z" fill="white"/>
<path d="M65.7076 19.0784C65.3428 19.0784 65.0188 19.0071 64.7356 18.8645C64.4572 18.7173 64.2388 18.5103 64.0804 18.2435C63.9268 17.9721 63.85 17.6501 63.85 17.2775C63.85 16.6703 64.006 16.2011 64.318 15.8699C64.6348 15.5341 65.086 15.3662 65.6716 15.3662C66.0748 15.3662 66.3988 15.449 66.6436 15.6146C66.8932 15.7802 67.0756 16.0217 67.1908 16.3391C67.306 16.6565 67.3612 17.0429 67.3564 17.4983H64.5844L64.4692 16.8428H66.4708L66.3124 17.1671C66.3076 16.7945 66.2524 16.5323 66.1468 16.3805C66.0412 16.2287 65.8684 16.1528 65.6284 16.1528C65.494 16.1528 65.3716 16.185 65.2612 16.2494C65.1556 16.3138 65.0716 16.4219 65.0092 16.5737C64.9516 16.7209 64.9228 16.9256 64.9228 17.1878C64.9228 17.519 65.0044 17.7743 65.1676 17.9537C65.3356 18.1331 65.602 18.2228 65.9668 18.2228C66.1012 18.2228 66.2332 18.209 66.3628 18.1814C66.4972 18.1492 66.622 18.1124 66.7372 18.071C66.8524 18.0296 66.9508 17.9928 67.0324 17.9606V18.8438C66.8596 18.9128 66.6652 18.968 66.4492 19.0094C66.238 19.0554 65.9908 19.0784 65.7076 19.0784Z" fill="white"/>
<path d="M69.5921 19.1129C69.1697 19.1129 68.8553 19.0186 68.6489 18.83C68.4425 18.6368 68.3393 18.3654 68.3393 18.0158V16.2701H67.8065V15.4835H68.3393V14.5244H69.4625V15.4835H70.2617V16.2701H69.4625V17.8847C69.4625 18.0043 69.4889 18.094 69.5417 18.1538C69.5945 18.209 69.6833 18.2366 69.8081 18.2366C69.8801 18.2366 69.9593 18.2228 70.0457 18.1952C70.1321 18.1676 70.2041 18.1331 70.2617 18.0917V18.9749C70.1609 19.0255 70.0505 19.06 69.9305 19.0784C69.8153 19.1014 69.7025 19.1129 69.5921 19.1129Z" fill="white"/>
<path d="M25.674 9.77503V5.93978H27.078C27.726 5.93978 28.208 6.10078 28.524 6.42278C28.84 6.74478 28.998 7.22203 28.998 7.85453C28.998 8.48703 28.84 8.9662 28.524 9.29203C28.208 9.61403 27.726 9.77503 27.078 9.77503H25.674ZM26.334 9.24028H27.012C27.46 9.24028 27.79 9.13103 28.002 8.91253C28.214 8.6902 28.32 8.33753 28.32 7.85453C28.32 7.37536 28.214 7.02461 28.002 6.80228C27.79 6.57995 27.46 6.46878 27.012 6.46878H26.334V9.24028Z" fill="white"/>
<path d="M31.0472 9.86128C30.5592 9.86128 30.1952 9.72903 29.9552 9.46453C29.7192 9.20003 29.6012 8.82245 29.6012 8.33178C29.6012 7.81045 29.7232 7.42903 29.9672 7.18753C30.2152 6.9422 30.5712 6.81953 31.0352 6.81953C31.3672 6.81953 31.6412 6.87895 31.8572 6.99778C32.0732 7.11278 32.2332 7.28336 32.3372 7.50953C32.4412 7.7357 32.4932 8.00978 32.4932 8.33178C32.4932 8.81861 32.3672 9.1962 32.1152 9.46453C31.8672 9.72903 31.5112 9.86128 31.0472 9.86128ZM31.0412 9.34953C31.2452 9.34953 31.4072 9.30736 31.5272 9.22303C31.6472 9.13486 31.7332 9.01411 31.7852 8.86078C31.8412 8.70745 31.8692 8.53111 31.8692 8.33178C31.8692 8.10945 31.8412 7.92353 31.7852 7.77403C31.7292 7.62453 31.6412 7.51336 31.5212 7.44053C31.4012 7.36386 31.2412 7.32553 31.0412 7.32553C30.8412 7.32553 30.6812 7.36578 30.5612 7.44628C30.4412 7.52678 30.3552 7.64178 30.3032 7.79128C30.2512 7.94078 30.2252 8.12095 30.2252 8.33178C30.2252 8.64995 30.2872 8.89911 30.4112 9.07928C30.5352 9.25945 30.7452 9.34953 31.0412 9.34953Z" fill="white"/>
<path d="M33.8001 9.77503L32.7981 6.88853H33.4701L34.2321 9.35528L34.0461 9.38978L34.7781 6.88853H35.3001L36.0261 9.32078H35.8761L36.6381 6.88853H37.2861L36.2781 9.77503H35.6841L34.9701 7.51528L35.0841 7.56703L34.3941 9.77503H33.8001Z" fill="white"/>
<path d="M37.9076 7.12428C37.9956 7.08211 38.0936 7.04378 38.2016 7.00928C38.3136 6.97095 38.4316 6.93836 38.5556 6.91153C38.6796 6.8847 38.8056 6.86361 38.9336 6.84828C39.0616 6.83295 39.1856 6.82528 39.3056 6.82528C39.5896 6.82528 39.8216 6.86361 40.0016 6.94028C40.1816 7.01311 40.3156 7.12811 40.4036 7.28528C40.4916 7.43861 40.5356 7.6322 40.5356 7.86603V9.77503H39.9056V7.94653C39.9056 7.8737 39.8956 7.80278 39.8756 7.73378C39.8596 7.66095 39.8256 7.59578 39.7736 7.53828C39.7256 7.47695 39.6536 7.42903 39.5576 7.39453C39.4656 7.36003 39.3436 7.34278 39.1916 7.34278C39.0836 7.34278 38.9716 7.35236 38.8556 7.37153C38.7436 7.3907 38.6376 7.41753 38.5376 7.45203V9.77503H37.9076V7.12428Z" fill="white"/>
<path d="M42.0472 9.77503H41.4232V5.79603H42.0472V9.77503Z" fill="white"/>
<path d="M44.225 9.86128C43.737 9.86128 43.373 9.72903 43.133 9.46453C42.897 9.20003 42.779 8.82245 42.779 8.33178C42.779 7.81045 42.901 7.42903 43.145 7.18753C43.393 6.9422 43.749 6.81953 44.213 6.81953C44.545 6.81953 44.819 6.87895 45.035 6.99778C45.251 7.11278 45.411 7.28336 45.515 7.50953C45.619 7.7357 45.671 8.00978 45.671 8.33178C45.671 8.81861 45.545 9.1962 45.293 9.46453C45.045 9.72903 44.689 9.86128 44.225 9.86128ZM44.219 9.34953C44.423 9.34953 44.585 9.30736 44.705 9.22303C44.825 9.13486 44.911 9.01411 44.963 8.86078C45.019 8.70745 45.047 8.53111 45.047 8.33178C45.047 8.10945 45.019 7.92353 44.963 7.77403C44.907 7.62453 44.819 7.51336 44.699 7.44053C44.579 7.36386 44.419 7.32553 44.219 7.32553C44.019 7.32553 43.859 7.36578 43.739 7.44628C43.619 7.52678 43.533 7.64178 43.481 7.79128C43.429 7.94078 43.403 8.12095 43.403 8.33178C43.403 8.64995 43.465 8.89911 43.589 9.07928C43.713 9.25945 43.923 9.34953 44.219 9.34953Z" fill="white"/>
<path d="M47.4957 9.86128C47.3397 9.86128 47.1897 9.84595 47.0457 9.81528C46.9017 9.78845 46.7697 9.74053 46.6497 9.67153C46.5337 9.60253 46.4397 9.50861 46.3677 9.38978C46.2997 9.26711 46.2657 9.1157 46.2657 8.93553C46.2657 8.72086 46.3097 8.54453 46.3977 8.40653C46.4857 8.26853 46.6117 8.16503 46.7757 8.09603C46.9397 8.02703 47.1357 7.99253 47.3637 7.99253C47.5157 7.99253 47.6517 8.00403 47.7717 8.02703C47.8957 8.05003 48.0057 8.08261 48.1017 8.12478C48.2017 8.16311 48.2857 8.2072 48.3537 8.25703L48.4197 8.65378C48.3317 8.59628 48.2137 8.54836 48.0657 8.51003C47.9177 8.46786 47.7577 8.44678 47.5857 8.44678C47.3577 8.44678 47.1837 8.48511 47.0637 8.56178C46.9477 8.63845 46.8897 8.75345 46.8897 8.90678C46.8897 9.02178 46.9237 9.1157 46.9917 9.18853C47.0597 9.25753 47.1437 9.30928 47.2437 9.34378C47.3477 9.37445 47.4557 9.38978 47.5677 9.38978C47.8037 9.38978 47.9777 9.37445 48.0897 9.34378C48.2017 9.31311 48.2577 9.2422 48.2577 9.13103V7.92353C48.2577 7.72036 48.1937 7.57278 48.0657 7.48078C47.9377 7.38495 47.7557 7.33703 47.5197 7.33703C47.3517 7.33703 47.1777 7.36386 46.9977 7.41753C46.8177 7.46736 46.6697 7.53828 46.5537 7.63028V7.06678C46.6657 6.99395 46.8277 6.93645 47.0397 6.89428C47.2557 6.84828 47.4777 6.82528 47.7057 6.82528C47.8177 6.82528 47.9297 6.83678 48.0417 6.85978C48.1577 6.87895 48.2657 6.91153 48.3657 6.95753C48.4657 6.9997 48.5537 7.05911 48.6297 7.13578C48.7097 7.20861 48.7717 7.2987 48.8157 7.40603C48.8597 7.51336 48.8817 7.63986 48.8817 7.78553V9.16553C48.8817 9.35336 48.8197 9.49903 48.6957 9.60253C48.5757 9.7022 48.4117 9.76928 48.2037 9.80378C47.9957 9.84211 47.7597 9.86128 47.4957 9.86128Z" fill="white"/>
<path d="M51.099 9.86128C50.915 9.86128 50.735 9.83828 50.559 9.79228C50.383 9.75011 50.223 9.67345 50.079 9.56228C49.935 9.44728 49.821 9.2882 49.737 9.08503C49.653 8.88186 49.611 8.61928 49.611 8.29728C49.611 7.84111 49.727 7.48078 49.959 7.21628C50.191 6.95178 50.543 6.81953 51.015 6.81953C51.091 6.81953 51.185 6.82911 51.297 6.84828C51.409 6.86745 51.523 6.8962 51.639 6.93453C51.755 6.96903 51.853 7.01503 51.933 7.07253L51.771 7.27378V5.68103H52.395V9.17128C52.395 9.29011 52.355 9.39361 52.275 9.48178C52.199 9.56995 52.097 9.64278 51.969 9.70028C51.841 9.75395 51.701 9.7942 51.549 9.82103C51.397 9.84786 51.247 9.86128 51.099 9.86128ZM51.117 9.33803C51.297 9.33803 51.451 9.31695 51.579 9.27478C51.707 9.23261 51.771 9.17703 51.771 9.10803V7.50378C51.667 7.44628 51.557 7.40411 51.441 7.37728C51.325 7.35045 51.213 7.33703 51.105 7.33703C50.909 7.33703 50.747 7.37536 50.619 7.45203C50.495 7.52486 50.403 7.63411 50.343 7.77978C50.283 7.92161 50.253 8.09795 50.253 8.30878C50.253 8.50045 50.277 8.67486 50.325 8.83203C50.373 8.98536 50.459 9.10803 50.583 9.20003C50.711 9.29203 50.889 9.33803 51.117 9.33803Z" fill="white"/>
<path d="M15.9177 13.6985C19.0365 13.6985 21.5648 11.2756 21.5648 8.28676C21.5648 5.29793 19.0365 2.875 15.9177 2.875C12.7989 2.875 10.2706 5.29793 10.2706 8.28676C10.2706 11.2756 12.7989 13.6985 15.9177 13.6985Z" fill="#0CA4FB"/>
<path fill-rule="evenodd" clip-rule="evenodd" d="M21.5316 6.14712C22.4354 7.47604 20.8001 10.0324 17.879 11.857C14.958 13.6816 11.8573 14.0833 10.9534 12.7544C10.3489 11.8655 10.8804 10.4273 12.1729 9.02634C12.0734 8.89725 12.0249 8.73836 12.0363 8.57806C12.0479 8.41589 12.12 8.26313 12.2395 8.14773C12.3589 8.03234 12.5178 7.96203 12.6869 7.94967C12.856 7.93731 13.0241 7.98374 13.1605 8.08044C13.6157 7.69629 14.0998 7.34481 14.609 7.02887C15.3051 6.5956 16.0126 6.24625 16.6976 5.98481C18.883 5.12678 20.8437 5.13562 21.5316 6.14712ZM12.0917 12.015C12.9923 12.3565 14.5957 12.0065 16.1185 11.0589C18.0392 9.86362 19.1051 8.16973 18.4994 7.27578C18.3063 6.99089 17.9667 6.82163 17.5315 6.7619C16.6015 6.63859 15.2385 7.01386 13.9349 7.82808C13.7209 7.96176 13.5175 8.10163 13.3259 8.24588C13.4186 8.37702 13.4603 8.53529 13.4437 8.69311C13.4266 8.85504 13.3492 9.00564 13.2256 9.11728C13.102 9.22892 12.9406 9.29413 12.7709 9.30094C12.6064 9.30753 12.4449 9.25883 12.3141 9.16352C11.4893 10.0802 11.1596 11.022 11.5612 11.6125C11.6837 11.7926 11.8648 11.9262 12.0917 12.015Z" fill="white"/>
<path d="M20.7706 9.55031H9.18975V9.1097H10.3338L10.2706 8.62499V8.28676V7.94852L10.3338 7.53849H9.63446C8.62553 7.67596 7.80005 8.58097 7.80005 9.55031V18.3626C7.80005 18.83 7.99527 19.2783 8.34276 19.6088C8.69026 19.9393 9.16156 20.125 9.65299 20.125H20.7706C21.2621 20.125 21.7334 19.9393 22.0809 19.6088C22.4284 19.2783 22.6236 18.83 22.6236 18.3626V11.3128C22.6236 10.8453 22.4284 10.397 22.0809 10.0665C21.7334 9.736 21.2621 9.55031 20.7706 9.55031ZM19.3809 15.7242C19.1984 15.7241 19.0176 15.6898 18.849 15.6233C18.6803 15.5568 18.5271 15.4594 18.3981 15.3366C18.269 15.2137 18.1667 15.0679 18.0969 14.9075C18.0271 14.747 17.9912 14.5751 17.9912 14.4014C17.9913 14.2278 18.0273 14.0559 18.0972 13.8955C18.1671 13.7351 18.2696 13.5893 18.3987 13.4666C18.5279 13.3438 18.6811 13.2465 18.8498 13.1801C19.0185 13.1137 19.1993 13.0796 19.3819 13.0796C19.7506 13.0797 20.1041 13.2192 20.3647 13.4672C20.6253 13.7153 20.7717 14.0516 20.7716 14.4023C20.7714 14.753 20.6249 15.0893 20.3641 15.3372C20.1033 15.5851 19.7496 15.7243 19.3809 15.7242Z" fill="#E3F3FC"/>
</svg>
