<svg width="81" height="24" viewBox="0 0 81 24" fill="none" xmlns="http://www.w3.org/2000/svg">
<path d="M78 24H3C1.32 24 0 22.68 0 21V3C0 1.32 1.32 0 3 0H78C79.68 0 81 1.32 81 3V21C81 22.68 79.68 24 78 24Z" fill="black"/>
<path d="M78 0.48C79.38 0.48 80.52 1.62 80.52 3V21C80.52 22.38 79.38 23.52 78 23.52H3C1.62 23.52 0.48 22.38 0.48 21V3C0.48 1.62 1.62 0.48 3 0.48H78ZM78 0H3C1.32 0 0 1.38 0 3V21C0 22.68 1.32 24 3 24H78C79.68 24 81 22.68 81 21V3C81 1.38 79.68 0 78 0Z" fill="#A6A6A6"/>
<path d="M28.44 6.12001C28.44 6.60001 28.32 7.02001 28.02 7.32001C27.66 7.68001 27.24 7.86001 26.7 7.86001C26.16 7.86001 25.74 7.68001 25.38 7.32001C25.02 6.96001 24.84 6.54001 24.84 6.00001C24.84 5.46001 25.02 5.04001 25.38 4.68001C25.74 4.32001 26.16 4.14001 26.7 4.14001C26.94 4.14001 27.18 4.20001 27.42 4.32001C27.66 4.44001 27.84 4.56001 27.96 4.74001L27.66 5.04001C27.42 4.74001 27.12 4.62001 26.7 4.62001C26.34 4.62001 25.98 4.74001 25.74 5.04001C25.44 5.28001 25.32 5.64001 25.32 6.06001C25.32 6.48001 25.44 6.84001 25.74 7.08001C26.04 7.32001 26.34 7.50001 26.7 7.50001C27.12 7.50001 27.42 7.38001 27.72 7.08001C27.9 6.90001 28.02 6.66001 28.02 6.36001H26.7V5.88001H28.44V6.12001ZM31.2 4.62001H29.58V5.76001H31.08V6.18001H29.58V7.32001H31.2V7.80001H29.1V4.20001H31.2V4.62001ZM33.18 7.80001H32.7V4.62001H31.68V4.20001H34.2V4.62001H33.18V7.80001ZM35.94 7.80001V4.20001H36.42V7.80001H35.94ZM38.46 7.80001H37.98V4.62001H36.96V4.20001H39.42V4.62001H38.4V7.80001H38.46ZM44.16 7.32001C43.8 7.68001 43.38 7.86001 42.84 7.86001C42.3 7.86001 41.88 7.68001 41.52 7.32001C41.16 6.96001 40.98 6.54001 40.98 6.00001C40.98 5.46001 41.16 5.04001 41.52 4.68001C41.88 4.32001 42.3 4.14001 42.84 4.14001C43.38 4.14001 43.8 4.32001 44.16 4.68001C44.52 5.04001 44.7 5.46001 44.7 6.00001C44.7 6.54001 44.52 6.96001 44.16 7.32001ZM41.88 7.02001C42.12 7.26001 42.48 7.44001 42.84 7.44001C43.2 7.44001 43.56 7.32001 43.8 7.02001C44.04 6.78001 44.22 6.42001 44.22 6.00001C44.22 5.58001 44.1 5.22001 43.8 4.98001C43.56 4.74001 43.2 4.56001 42.84 4.56001C42.48 4.56001 42.12 4.68001 41.88 4.98001C41.64 5.22001 41.46 5.58001 41.46 6.00001C41.46 6.42001 41.58 6.78001 41.88 7.02001ZM45.36 7.80001V4.20001H45.9L47.64 7.02001V4.20001H48.12V7.80001H47.64L45.78 4.86001V7.80001H45.36Z" fill="white" stroke="white" stroke-width="0.2" stroke-miterlimit="10"/>
<path d="M40.86 13.08C39.42 13.08 38.28 14.16 38.28 15.66C38.28 17.1 39.42 18.24 40.86 18.24C42.3 18.24 43.44 17.16 43.44 15.66C43.44 14.1 42.3 13.08 40.86 13.08ZM40.86 17.16C40.08 17.16 39.42 16.5 39.42 15.6C39.42 14.7 40.08 14.04 40.86 14.04C41.64 14.04 42.3 14.64 42.3 15.6C42.3 16.5 41.64 17.16 40.86 17.16ZM35.28 13.08C33.84 13.08 32.7 14.16 32.7 15.66C32.7 17.1 33.84 18.24 35.28 18.24C36.72 18.24 37.86 17.16 37.86 15.66C37.86 14.1 36.72 13.08 35.28 13.08ZM35.28 17.16C34.5 17.16 33.84 16.5 33.84 15.6C33.84 14.7 34.5 14.04 35.28 14.04C36.06 14.04 36.72 14.64 36.72 15.6C36.72 16.5 36.06 17.16 35.28 17.16ZM28.62 13.86V14.94H31.2C31.14 15.54 30.9 16.02 30.6 16.32C30.24 16.68 29.64 17.1 28.62 17.1C27 17.1 25.8 15.84 25.8 14.22C25.8 12.6 27.06 11.34 28.62 11.34C29.46 11.34 30.12 11.7 30.6 12.12L31.38 11.34C30.72 10.74 29.88 10.26 28.68 10.26C26.52 10.26 24.66 12.06 24.66 14.22C24.66 16.38 26.52 18.18 28.68 18.18C29.88 18.18 30.72 17.82 31.44 17.04C32.16 16.32 32.4 15.3 32.4 14.52C32.4 14.28 32.4 14.04 32.34 13.86H28.62ZM55.86 14.7C55.62 14.1 55.02 13.08 53.7 13.08C52.38 13.08 51.3 14.1 51.3 15.66C51.3 17.1 52.38 18.24 53.82 18.24C54.96 18.24 55.68 17.52 55.92 17.1L55.08 16.5C54.78 16.92 54.42 17.22 53.82 17.22C53.22 17.22 52.86 16.98 52.56 16.44L55.98 15L55.86 14.7ZM52.38 15.54C52.38 14.58 53.16 14.04 53.7 14.04C54.12 14.04 54.54 14.28 54.66 14.58L52.38 15.54ZM49.56 18H50.7V10.5H49.56V18ZM47.76 13.62C47.46 13.32 46.98 13.02 46.38 13.02C45.12 13.02 43.92 14.16 43.92 15.6C43.92 17.04 45.06 18.12 46.38 18.12C46.98 18.12 47.46 17.82 47.7 17.52H47.76V17.88C47.76 18.84 47.22 19.38 46.38 19.38C45.72 19.38 45.24 18.9 45.12 18.48L44.16 18.9C44.46 19.56 45.18 20.4 46.44 20.4C47.76 20.4 48.84 19.62 48.84 17.76V13.2H47.76V13.62ZM46.44 17.16C45.66 17.16 45 16.5 45 15.6C45 14.7 45.66 14.04 46.44 14.04C47.22 14.04 47.82 14.7 47.82 15.6C47.82 16.5 47.22 17.16 46.44 17.16ZM61.08 10.5H58.38V18H59.52V15.18H61.08C62.34 15.18 63.54 14.28 63.54 12.84C63.54 11.4 62.34 10.5 61.08 10.5V10.5ZM61.14 14.1H59.52V11.52H61.14C61.98 11.52 62.46 12.24 62.46 12.78C62.4 13.44 61.92 14.1 61.14 14.1ZM68.04 13.02C67.2 13.02 66.36 13.38 66.06 14.16L67.08 14.58C67.32 14.16 67.68 14.04 68.1 14.04C68.7 14.04 69.24 14.4 69.3 15V15.06C69.12 14.94 68.64 14.76 68.16 14.76C67.08 14.76 66 15.36 66 16.44C66 17.46 66.9 18.12 67.86 18.12C68.64 18.12 69 17.76 69.3 17.4H69.36V18H70.44V15.12C70.32 13.8 69.3 13.02 68.04 13.02V13.02ZM67.92 17.16C67.56 17.16 67.02 16.98 67.02 16.5C67.02 15.9 67.68 15.72 68.22 15.72C68.7 15.72 68.94 15.84 69.24 15.96C69.12 16.68 68.52 17.16 67.92 17.16V17.16ZM74.22 13.2L72.96 16.44H72.9L71.58 13.2H70.38L72.36 17.76L71.22 20.28H72.36L75.42 13.2H74.22ZM64.14 18H65.28V10.5H64.14V18Z" fill="white"/>
<path d="M6.24 4.5C6.06 4.68 6 4.98 6 5.34V18.6C6 18.96 6.12 19.26 6.3 19.44L6.36 19.5L13.8 12.06V11.94L6.24 4.5Z" fill="url(#paint0_linear_232_2017)"/>
<path d="M16.2 14.58L13.74 12.12V11.94L16.2 9.47998L16.26 9.53998L19.2 11.22C20.04 11.7 20.04 12.48 19.2 12.96L16.2 14.58Z" fill="url(#paint1_linear_232_2017)"/>
<path d="M16.26 14.52L13.74 12L6.23999 19.5C6.53999 19.8 6.95999 19.8 7.49999 19.56L16.26 14.52Z" fill="url(#paint2_linear_232_2017)"/>
<path d="M16.26 9.47997L7.49999 4.49997C6.95999 4.19997 6.53999 4.25997 6.23999 4.55997L13.74 12L16.26 9.47997Z" fill="url(#paint3_linear_232_2017)"/>
<path opacity="0.2" d="M16.2 14.46L7.49999 19.38C7.01999 19.68 6.59999 19.62 6.29999 19.38L6.23999 19.44L6.29999 19.5C6.59999 19.74 7.01999 19.8 7.49999 19.5L16.2 14.46Z" fill="black"/>
<path opacity="0.12" d="M6.24 19.38C6.06 19.2 6 18.9 6 18.54V18.6C6 18.96 6.12 19.26 6.3 19.44V19.38H6.24ZM19.2 12.78L16.2 14.46L16.26 14.52L19.2 12.84C19.62 12.6 19.8 12.3 19.8 12C19.8 12.3 19.56 12.54 19.2 12.78V12.78Z" fill="black"/>
<path opacity="0.25" d="M7.5 4.56002L19.2 11.22C19.56 11.46 19.8 11.7 19.8 12C19.8 11.7 19.62 11.4 19.2 11.16L7.5 4.50002C6.66 4.02002 6 4.38002 6 5.34002V5.40002C6 4.50002 6.66 4.08002 7.5 4.56002Z" fill="white"/>
<defs>
<linearGradient id="paint0_linear_232_2017" x1="13.08" y1="5.226" x2="3.0102" y2="15.2952" gradientUnits="userSpaceOnUse">
<stop stop-color="#00A0FF"/>
<stop offset="0.007" stop-color="#00A1FF"/>
<stop offset="0.26" stop-color="#00BEFF"/>
<stop offset="0.512" stop-color="#00D2FF"/>
<stop offset="0.76" stop-color="#00DFFF"/>
<stop offset="1" stop-color="#00E3FF"/>
</linearGradient>
<linearGradient id="paint1_linear_232_2017" x1="20.3004" y1="12.0006" x2="5.78219" y2="12.0006" gradientUnits="userSpaceOnUse">
<stop stop-color="#FFE000"/>
<stop offset="0.409" stop-color="#FFBD00"/>
<stop offset="0.775" stop-color="#FFA500"/>
<stop offset="1" stop-color="#FF9C00"/>
</linearGradient>
<linearGradient id="paint2_linear_232_2017" x1="14.8962" y1="13.3776" x2="1.24139" y2="27.0324" gradientUnits="userSpaceOnUse">
<stop stop-color="#FF3A44"/>
<stop offset="1" stop-color="#C31162"/>
</linearGradient>
<linearGradient id="paint3_linear_232_2017" x1="4.37819" y1="0.10557" x2="10.476" y2="6.20337" gradientUnits="userSpaceOnUse">
<stop stop-color="#32A071"/>
<stop offset="0.069" stop-color="#2DA771"/>
<stop offset="0.476" stop-color="#15CF74"/>
<stop offset="0.801" stop-color="#06E775"/>
<stop offset="1" stop-color="#00F076"/>
</linearGradient>
</defs>
</svg>
